<?xml version="1.0" encoding="iso-8859-1"?>
 <!DOCTYPE svg PUBLIC "-//W3C//DTD SVG 1.1//EN" "http://www.w3.org/Graphics/SVG/1.1/DTD/svg11.dtd">
<svg xmlns="http://www.w3.org/2000/svg" xmlns:xlink="http://www.w3.org/1999/xlink" version="1.1" id="Capa_1" viewBox="0 0 470 470" xml:space="preserve" width="512" height="512">
  <g>
    <path style="fill: #FF6F00;" d="M150,180h-30v135h30c37.279,0,67.5-30.221,67.5-67.5C217.5,210.221,187.279,180,150,180z"/>
    <path style="fill: #FF6F00;" d="M395,180h-30v135h30c37.279,0,67.5-30.221,67.5-67.5C462.5,210.221,432.279,180,395,180z"/>
    <path style="fill: #FF6F00;" d="M407.5,360l-51.667,65h30c16.5,0,34.269-12.807,39.487-28.46L437.5,360H407.5z"/>
    <path style="fill: #FF6F00;" d="M32.5,360l12.18,36.54C49.898,412.193,67.667,425,84.167,425h271.667c16.5,0,34.269-12.807,39.487-28.46L407.5,360H32.5z"/>
    <path style="fill: #FF6F00;" d="M447.5,345h-425c-8.284,0-15,6.716-15,15s6.716,15,15,15h425c8.284,0,15-6.716,15-15S455.784,345,447.5,345z"/>
    <path style="fill: #FF6F00;" d="M75,322.5h75c41.355,0,75-33.645,75-75s-33.645-75-75-75h-30V45c0-4.143-3.358-7.5-7.5-7.5S105,40.857,105,45v127.5H75c-41.355,0-75,33.645-75,75S33.645,322.5,75,322.5z M75,187.5h75c33.084,0,60,26.916,60,60s-26.916,60-60,60H75c-33.084,0-60-26.916-60-60S41.916,187.5,75,187.5z"/>
    <circle cx="157.5" cy="277.5" r="7.5" style="fill: #FF6F00;"/>
    <circle cx="67.5" cy="217.5" r="7.5" style="fill: #FF6F00;"/>
    <path style="fill: #FF6F00;" d="M320,322.5h75c41.355,0,75-33.645,75-75s-33.645-75-75-75h-30V45c0-4.143-3.358-7.5-7.5-7.5S350,40.857,350,45v127.5h-30c-14.157,0-27.961,3.982-39.922,11.518c-3.504,2.208-4.556,6.839-2.348,10.344c2.208,3.503,6.838,4.558,10.343,2.348c9.563-6.024,20.603-9.209,31.926-9.209h75c33.084,0,60,26.916,60,60s-26.916,60-60,60h-75c-33.084,0-60-26.916-60-60c0-11.324,3.185-22.363,9.209-31.926c2.208-3.505,1.157-8.136-2.348-10.344c-3.505-2.208-8.136-1.156-10.344,2.348C248.983,219.538,245,233.343,245,247.5C245,288.855,278.645,322.5,320,322.5z"/>
   
</g>
</svg>
