<?xml version="1.0" encoding="iso-8859-1"?>
 <!DOCTYPE svg PUBLIC "-//W3C//DTD SVG 1.1//EN" "http://www.w3.org/Graphics/SVG/1.1/DTD/svg11.dtd">
<svg fill="#ff0000" height="800px" width="800px" version="1.1" id="Capa_1" xmlns="http://www.w3.org/2000/svg" xmlns:xlink="http://www.w3.org/1999/xlink" 
	 viewBox="0 0 458.962 458.962" xml:space="preserve">
<g>
	<path d="M176.663,381.721c-1.696,2.742-2.875,3.864-6.671,8.04l-21.393,23.575l7.578,32.294c2.18,9.294,11.482,15.048,20.762,12.87
		c9.287-2.179,15.049-11.475,12.869-20.762L176.663,381.721z"/>
	<path d="M73.914,189.732c17.508-1.162,30.759-16.296,29.597-33.804c-0.605-9.123-5.009-17.084-11.561-22.458
		c-0.954-0.015-1.917-0.025-2.891-0.025c-15.759,0-31.017,2.124-42.964,5.982c-0.015,0.005-0.03,0.008-0.045,0.013
		c-4.182,5.788-6.449,13.013-5.939,20.695C41.272,177.643,56.407,190.894,73.914,189.732z"/>
	<path d="M163.885,365.133c-1.237-5.489-5.07-10.032-10.272-12.175l-67.463-27.785c8.632,1.792,60.662,12.594,72.691,15.091
		c3.257,0.676,6.259,1.902,8.931,3.56l-3.846-16.389c-1.832-7.808-8.796-13.327-16.815-13.327h-28.128l-1.263-19.034
		c-6.358,0.353-12.488-2.544-16.264-7.6l-33.599-45.128l42.561,33.865c3.777,3.005,8.803,3.914,13.383,2.435l54.729-17.662
		c7.565-2.441,11.719-10.554,9.277-18.119c-0.848-2.627-2.389-4.829-4.344-6.5c3.456-18.623,2.68-14.442,3.714-20.014
		c8.658-3.573,16.723-14.404,19.965-23.736c0.775-2.23-0.617-4.634-2.948-5.067l-37.419-6.943c-2.331-0.433-4.493,1.323-4.57,3.672
		c-0.321,9.874,3.322,22.878,10.122,29.319c-1.498,8.073-0.367,1.976-3.778,20.359l-46.245,14.924l-36.522-29.06l27.754,12.174
		l-0.5-7.541c-0.785-11.827-11.009-20.778-22.835-19.994l-38.188,2.534c-11.827,0.785-20.778,11.009-19.994,22.835
		c7.431,111.998,6.111,104.795,8.489,109.425c3.241,6.334,8.073,7.806,12.057,9.446h-3.228c-4.464,0-8.084,3.619-8.084,8.084v83.863
		c0,6.723,4.899,12.288,11.319,13.357c-4.68-10.824-2.953-23.851,5.488-33.153l41.914-46.19l-26.977-17.546l44.721,18.418
		l-49.492,54.543c-6.411,7.064-5.881,17.988,1.184,24.398c7.078,6.421,18,5.868,24.398-1.185l66.02-72.755
		C163.606,376.37,165.121,370.622,163.885,365.133z"/>
	<path d="M397.874,204.62l-38.199-2.535c-11.827-0.785-22.051,8.167-22.835,19.994l-1.311,19.751l26.517-19.806l-29.002,36.566
		l-49.614-4.18c-7.891-0.667-14.884,5.213-15.551,13.135c-0.668,7.921,5.213,14.884,13.135,15.551l21.94,1.848
		c-7.42,0-55.455,0-62.966,0v-151.22c-3.203-0.181-6.537-0.279-10-0.279c-3.463,0-6.797,0.098-10,0.279v151.22h-65.023
		c-5.523,0-10,4.477-10,10c0,5.523,4.477,10,10,10h64.929v132.909h-12.467c-5.522,0-10,4.477-10,10c0,5.523,4.478,10,10,10h45.594
		c5.522,0,10-4.477,10-10c0-5.523-4.478-10-10-10h-13.127V304.946h66.554c5.552,0,10-4.529,10-10c0-4.361-2.796-8.059-6.689-9.427
		l28.56,2.406c4.868,0.406,9.525-1.666,12.485-5.398l33.8-42.614l-22.522,51.559c-3.332,7.627-11.077,11.96-18.934,11.31
		c-7.405-0.63-4.762-0.406-11.595-0.982l-1.508,22.726l35.784,3.942l-72.748,5.559c-5.61,0.429-10.66,3.564-13.534,8.401
		c-2.873,4.837-3.211,10.771-0.903,15.904l40.283,89.606c3.916,8.711,14.146,12.579,22.836,8.671
		c8.701-3.912,12.583-14.136,8.672-22.836l-30.199-67.175l48.226-3.685c-10.445,2.804-20.583,5.525-31.081,8.343
		c2.401,5.341,22.654,50.391,25.575,56.888c3.724,8.284,3.511,17.338,0.159,25.062h37.139c7.487,0,13.557-6.07,13.557-13.557
		v-83.863c0-2.946-1.581-5.516-3.935-6.929l7.995-121.412C418.647,215.622,409.697,205.404,397.874,204.62z"/>
	<path d="M409.762,157.76c0.521-7.847-1.861-15.212-6.216-21.061c-9.881-2.115-21.119-3.253-32.631-3.253
		c-5.793,0-11.223,0.276-16.276,0.756c-4.713,5.139-7.78,11.852-8.277,19.351c-1.161,17.508,12.09,32.642,29.597,33.804
		C393.466,188.519,408.6,175.268,409.762,157.76z"/>
	<path d="M426.385,112.281c-21.177-39.52-95.996-84.701-186.398-87.847V10c0-2.478-0.906-4.741-2.399-6.488
		C235.754,1.365,233.032,0,229.987,0c-3.045,0-5.767,1.365-7.601,3.512c-1.493,1.747-2.399,4.01-2.399,6.488v14.434
		C129.585,27.58,54.766,72.761,33.589,112.281c-0.989,1.846-0.758,4.107,0.584,5.714c1.341,1.607,3.525,2.24,5.518,1.596
		c13.552-4.376,30.707-6.99,49.368-6.99c28.601,0,53.666,6.142,67.637,15.353c0.857,0.565,1.842,0.848,2.827,0.848
		c0.985,0,1.97-0.283,2.828-0.848c13.971-9.211,39.035-15.353,67.637-15.353c28.601,0,53.666,6.142,67.636,15.353
		c0.857,0.565,1.842,0.848,2.827,0.848c0.985,0,1.97-0.283,2.827-0.848c13.971-9.211,39.035-15.353,67.637-15.353
		c18.661,0,35.817,2.614,49.368,6.99c1.988,0.642,4.174,0.016,5.518-1.596C427.143,116.389,427.374,114.127,426.385,112.281z"/>
</g>
</svg>